{"title":"Space Cop 2016 HDRip x264-STANDARD","uid":13386581,"size":640463636,"categoryP":"video","categoryS":"movies","magnet":"?xt=urn:btih:355d4825b86dd68e8dcacce175ad41b937e0b186&amp;dn=Space+Cop+2016+HDRip+x264-STANDARD&amp;tr=udp%3A%2F%2Ftracker.leechers-paradise.org%3A6969&amp;tr=udp%3A%2F%2Fzer0day.ch%3A1337&amp;tr=udp%3A%2F%2Fopen.demonii.com%3A1337&amp;tr=udp%3A%2F%2Ftracker.coppersurfer.tk%3A6969&amp;tr=udp%3A%2F%2Fexodus.desync.com%3A6969","seeders":1,"leechers":0,"uploader":"makintos13","files":3,"time":1454298836,"description":"screens:\r\n \nhttp://imgmak.com/Kf1 \nhttp://imgmak.com/KfU \nhttp://imgmak.com/Kf3 \nhttp://imgmak.com/KfG \nhttp://imgmak.com/KfH\r\n\r\n\r\nSpace.Cop.2016.HDRip.x264-STANDARD\r\n\r\nSOURCE: 1080p.WEB-DL.x264-SMALLFRY\r\n \nhttp://www.imdb.com/title/tt3892384/\r\n\r\nSpace Cop is the story of a cop from the future of space who travels back in time to the present and is teamed up with a cop from the past who is unfrozen in the present. Together, they must defeat evil aliens with a sinister plan.\r\n\r\nGeneral\r\nComplete name               : Space.Cop.2016.HDRip.x264-STANDARD.mp4\r\nFormat                      : MPEG-4\r\nFormat profile              : Base Media\r\nCodec ID                    : isom (isom/avc1)\r\nFile size                   : 601 MiB\r\nDuration                    : 1h 42mn\r\nOverall bit rate mode       : Variable\r\nOverall bit rate            : 822 Kbps\r\nEncoded date                : UTC 2016-01-31 15:15:54\r\nTagged date                 : UTC 2016-01-31 15:15:54\r\n\r\nVideo\r\nID                          : 1\r\nFormat                      : AVC\r\nFormat/Info                 : Advanced Video Codec\r\nFormat profile              :   \r\nFormat settings, CABAC      : Yes\r\nFormat settings, ReFrames   : 3 frames\r\nCodec ID                    : avc1\r\nCodec ID/Info               : Advanced Video Coding\r\nDuration                    : 1h 42mn\r\nBit rate mode               : Variable\r\nBit rate                    : 702 Kbps\r\nMaximum bit rate            : 40.0 Mbps\r\nWidth                       : 720 pixels\r\nHeight                      : 304 pixels\r\nDisplay aspect ratio        : 2.35:1\r\nFrame rate mode             : Constant\r\nFrame rate                  : 24.000 fps\r\nColor space                 : YUV\r\nChroma subsampling          : 4:2:0\r\nBit depth                   : 8 bits\r\nScan type                   : Progressive\r\nBits/(Pixel*Frame)          : 0.134\r\nStream size                 : 513 MiB (85%)\r\nWriting library             : x264 core 148 r2638 7599210\r\n\r\nAudio\r\nID                          : 2\r\nFormat                      : AAC\r\nFormat/Info                 : Advanced Audio Codec\r\nFormat profile              : LC\r\nCodec ID                    : 40\r\nDuration                    : 1h 42mn\r\nBit rate mode               : Variable\r\nBit rate                    : 116 Kbps\r\nMaximum bit rate            : 161 Kbps\r\nChannel(s)                  : 2 channels\r\nChannel positions           : Front: L R\r\nSampling rate               : 48.0 KHz\r\nFrame rate                  : 46.875 fps (1024 spf)\r\nCompression mode            : Lossy\r\nStream size                 : 84.8 MiB (14%)\r\nLanguage                    : English\r\nEncoded date                : UTC 2016-01-31 14:59:46\r\nTagged date                 : UTC 2016-01-31 15:24:56","torrent":{"xt":"urn:btih:355d4825b86dd68e8dcacce175ad41b937e0b186","amp;dn":"Space+Cop+2016+HDRip+x264-STANDARD","amp;tr":["udp%3A%2F%2Ftracker.leechers-paradise.org%3A6969","udp%3A%2F%2Fzer0day.ch%3A1337","udp%3A%2F%2Fopen.demonii.com%3A1337","udp%3A%2F%2Ftracker.coppersurfer.tk%3A6969","udp%3A%2F%2Fexodus.desync.com%3A6969"],"infoHash":"355d4825b86dd68e8dcacce175ad41b937e0b186","infoHashBuffer":{"type":"Buffer","data":[53,93,72,37,184,109,214,142,141,202,204,225,117,173,65,185,55,224,177,134]},"announce":[],"urlList":[]}}